HIERARCHY
ROOT Hips
{
 OFFSET 0.000000 0.000000 0.000000
 CHANNELS 6 Xposition Yposition Zposition Yrotation Xrotation Zrotation
 JOINT Chest
 {
  OFFSET 0.000000 9.585900 0.002600
  CHANNELS 3 Yrotation Xrotation Zrotation
  JOINT Chest2
  {
   OFFSET 0.000000 9.601200 -0.005300
   CHANNELS 3 Yrotation Xrotation Zrotation
   JOINT Chest3
   {
    OFFSET 0.000000 9.561800 0.000000
    CHANNELS 3 Yrotation Xrotation Zrotation
    JOINT Chest4
    {
     OFFSET 0.000000 9.552100 0.000000
     CHANNELS 3 Yrotation Xrotation Zrotation
     JOINT Neck
     {
      OFFSET 0.000000 14.453000 0.000000
      CHANNELS 3 Yrotation Xrotation Zrotation
      JOINT Head
      {
       OFFSET 0.000000 8.936500 -0.011300
       CHANNELS 3 Yrotation Xrotation Zrotation
       End Site
       {
        OFFSET 0.000000 17.073600 -0.006000
       }
      }
     }
     JOINT RightCollar
     {
      OFFSET -2.921100 9.558500 0.000000
      CHANNELS 3 Yrotation Xrotation Zrotation
      JOINT RightShoulder
      {
       OFFSET -13.519700 0.000000 0.000000
       CHANNELS 3 Yrotation Xrotation Zrotation
       JOINT RightElbow
       {
        OFFSET 0.000000 -29.696600 0.000000
        CHANNELS 3 Yrotation Xrotation Zrotation
        JOINT RightWrist
        {
         OFFSET 0.000000 -24.004700 0.000000
         CHANNELS 3 Yrotation Xrotation Zrotation
         End Site
         {
          OFFSET 0.000000 -17.728500 0.000000
         }
        }
       }
      }
     }
     JOINT LeftCollar
     {
      OFFSET 2.921100 9.558500 0.000000
      CHANNELS 3 Yrotation Xrotation Zrotation
      JOINT LeftShoulder
      {
       OFFSET 13.519700 0.000000 0.000000
       CHANNELS 3 Yrotation Xrotation Zrotation
       JOINT LeftElbow
       {
        OFFSET 0.000000 -29.696600 0.000000
        CHANNELS 3 Yrotation Xrotation Zrotation
        JOINT LeftWrist
        {
         OFFSET 0.000000 -24.004700 0.000000
         CHANNELS 3 Yrotation Xrotation Zrotation
         End Site
         {
          OFFSET 0.000000 -17.728500 0.000000
         }
        }
       }
      }
     }
    }
   }
  }
 }
 JOINT RightHip
 {
  OFFSET -7.771700 -0.012900 -0.001300
  CHANNELS 3 Yrotation Xrotation Zrotation
  JOINT RightKnee
  {
   OFFSET 0.000000 -40.869800 0.001200
   CHANNELS 3 Yrotation Xrotation Zrotation
   JOINT RightAnkle
   {
    OFFSET 0.000000 -39.717900 0.002100
    CHANNELS 3 Yrotation Xrotation Zrotation
    JOINT RightToe
    {
     OFFSET 0.000000 -4.965400 11.033500
     CHANNELS 3 Yrotation Xrotation Zrotation
     End Site
     {
      OFFSET 0.000000 -1.423100 5.872300
     }
    }
   }
  }
 }
 JOINT LeftHip
 {
  OFFSET 7.771700 -0.012900 -0.001300
  CHANNELS 3 Yrotation Xrotation Zrotation
  JOINT LeftKnee
  {
   OFFSET 0.000000 -40.869800 0.001200
   CHANNELS 3 Yrotation Xrotation Zrotation
   JOINT LeftAnkle
   {
    OFFSET 0.000000 -39.717900 0.002100
    CHANNELS 3 Yrotation Xrotation Zrotation
    JOINT LeftToe
    {
     OFFSET 0.000000 -4.965400 11.033500
     CHANNELS 3 Yrotation Xrotation Zrotation
     End Site
     {
      OFFSET 0.000000 -1.423100 5.872300
     }
    }
   }
  }
 }
}
MOTION
Frames: 6
Frame Time: 0.008333
-34.964020 52.976342 -1.856753 -177.236001 -17.324653 -2.301465 0.777544 16.596649 0.858183 0.066565 1.675850 0.085484 0.116396 2.836534 0.141683 0.684011 14.628229 0.814755 -0.410608 17.468182 0.045909 -0.443955 -7.407435 0.144108 0.796138 -1.356524 3.326661 -1.540796 -6.741716 -5.846086 -78.383842 -77.504567 107.328902 -6.827256 -8.779912 -6.794362 -6.062959 -1.203829 0.695144 3.680926 -8.144075 8.629045 58.741429 -59.043923 -95.754123 4.205164 -2.463981 9.122870 1.337389 -61.017845 10.920328 -172.498278 86.571550 -174.647305 -13.289278 -22.136340 13.433675 -0.032948 -0.030199 0.001087 4.476184 -59.780185 -3.547350 120.791778 78.086705 118.785517 -6.587110 -19.277561 -0.854436 0.015766 0.082754 0.002479
-34.966743 52.976770 -1.857266 -177.234979 -17.328151 -2.295122 0.774875 16.611798 0.851219 0.068049 1.692150 0.084941 0.115366 2.817673 0.142266 0.688290 14.673371 0.821070 -0.416219 17.436467 0.038393 -0.444602 -7.421450 0.142451 0.790214 -1.410253 3.320044 -1.543227 -6.740156 -5.840541 -78.358720 -77.505585 107.302600 -6.831423 -8.737179 -6.799385 -6.080093 -1.253935 0.716940 3.688451 -8.156443 8.620174 58.732644 -59.033288 -95.754355 4.203434 -2.465330 9.113993 1.344074 -61.018483 10.944850 -171.917458 86.570575 -174.032048 -13.519668 -22.109675 13.464350 -0.010947 -0.015731 0.007940 4.484443 -59.772184 -3.562550 120.770490 78.088366 118.763550 -6.585879 -19.277496 -0.854272 0.014495 0.084093 0.003127
-34.966266 52.977093 -1.857144 -177.236058 -17.325511 -2.304663 0.778575 16.620327 0.863254 0.068189 1.694723 0.085167 0.114679 2.812671 0.140155 0.689965 14.684752 0.823755 -0.417045 17.438512 0.034856 -0.445401 -7.424669 0.134900 0.774959 -1.430711 3.315671 -1.542503 -6.733307 -5.834187 -78.332034 -77.500620 107.283828 -6.827720 -8.715505 -6.794445 -6.091855 -1.271373 0.737857 3.693878 -8.169382 8.613982 58.726116 -59.020787 -95.761257 4.200694 -2.464938 9.109697 1.312570 -61.015057 10.945667 -172.496047 86.574340 -174.653070 -13.229165 -22.134833 13.424611 0.001576 -0.033873 -0.009230 4.468226 -59.774412 -3.544244 120.765189 78.089321 118.758908 -6.582445 -19.283107 -0.863643 0.013080 0.089661 0.010658
-34.968163 52.977167 -1.856630 -177.234128 -17.318968 -2.298532 0.774207 16.622481 0.858142 0.068121 1.700598 0.086391 0.115962 2.816078 0.140063 0.688711 14.673884 0.821312 -0.415954 17.448442 0.033943 -0.449866 -7.425874 0.131032 0.763413 -1.437585 3.308717 -1.560239 -6.729696 -5.814034 -78.288661 -77.501124 107.259862 -6.822126 -8.694117 -6.782696 -6.113617 -1.270929 0.784850 3.714601 -8.182507 8.579315 58.722362 -59.012497 -95.768955 4.196638 -2.460495 9.101933 1.320400 -61.010147 10.855891 -173.950204 86.575564 -176.185924 -12.657533 -22.190167 13.349860 0.028017 -0.063502 -0.033302 4.475406 -59.781285 -3.555388 120.768037 78.090198 118.762128 -6.591650 -19.311974 -0.867809 0.018724 0.117329 0.013479
-34.967791 52.977841 -1.858103 -177.242672 -17.322659 -2.301451 0.783932 16.628678 0.864499 0.067654 1.709006 0.088536 0.116589 2.823257 0.140772 0.691019 14.683557 0.823819 -0.419485 17.425976 0.028366 -0.440179 -7.400957 0.121602 0.737608 -1.477864 3.287282 -1.552048 -6.713425 -5.794615 -78.240849 -77.494179 107.216477 -6.813581 -8.690612 -6.770432 -6.127478 -1.296316 0.807241 3.727028 -8.186789 8.558612 58.721195 -59.010134 -95.771720 4.185372 -2.448943 9.085425 1.318230 -61.003577 10.846618 -174.288588 86.576785 -176.545680 -12.481763 -22.203589 13.328704 0.034443 -0.066021 -0.035688 4.474558 -59.773922 -3.543765 120.790260 78.099961 118.785641 -6.582986 -19.320028 -0.869294 0.018726 0.121359 0.013402
-34.965352 52.978857 -1.860872 -177.249049 -17.331794 -2.316248 0.794096 16.650257 0.885195 0.068726 1.700000 0.086035 0.116144 2.839101 0.144920 0.692436 14.723568 0.835932 -0.419791 17.390103 0.014789 -0.443672 -7.420390 0.118556 0.729641 -1.539994 3.264592 -1.551053 -6.708427 -5.788385 -78.222575 -77.487357 107.195865 -6.807601 -8.686021 -6.759869 -6.141007 -1.355166 0.822185 3.731164 -8.198940 8.553272 58.712646 -59.007564 -95.779327 4.185598 -2.445995 9.089067 1.286853 -60.998684 10.918924 -173.684042 86.577060 -175.910793 -12.688986 -22.179160 13.356144 0.019365 -0.049540 -0.022333 4.449417 -59.763155 -3.508916 120.795932 78.096135 118.790438 -6.573373 -19.299205 -0.868126 0.006516 0.094341 0.007928
